<?xml version="1.0" standalone="no"?>
<!DOCTYPE svg PUBLIC "-//W3C//DTD SVG 20010904//EN"
 "http://www.w3.org/TR/2001/REC-SVG-20010904/DTD/svg10.dtd">
<svg version="1.0" xmlns="http://www.w3.org/2000/svg"
 width="284.000000pt" height="324.000000pt" viewBox="0 0 284.000000 324.000000"
 preserveAspectRatio="xMidYMid meet">

<g transform="translate(0.000000,324.000000) scale(0.100000,-0.100000)"
fill="#000000" stroke="none">
<path d="M1295 2893 c-63 -25 -102 -59 -127 -112 -22 -47 -25 -49 -72 -53 -49
-5 -63 -15 -92 -64 -9 -16 -31 -18 -195 -23 -170 -6 -187 -8 -222 -29 -85 -53
-107 -113 -107 -288 l0 -121 -48 -64 c-99 -132 -148 -241 -188 -417 -65 -291
4 -579 197 -812 l37 -45 4 -130 c3 -122 5 -133 33 -185 33 -60 98 -111 163
-130 24 -6 319 -10 823 -10 874 0 848 -2 928 67 49 42 89 121 97 193 3 30 1
97 -4 148 -8 81 -14 99 -45 146 -34 51 -35 56 -28 113 6 55 12 67 58 116 147
162 144 366 -9 532 -47 52 -58 73 -82 150 -32 104 -61 163 -122 256 l-44 67 0
149 c0 149 0 150 -30 195 -18 28 -48 55 -79 71 -47 26 -55 27 -202 27 -167 0
-199 5 -199 27 0 7 -11 25 -25 38 -18 19 -35 25 -69 25 -39 0 -45 3 -54 28
-16 46 -73 103 -127 128 -58 27 -113 30 -170 7z m134 -139 c17 -14 35 -42 41
-64 13 -47 56 -77 124 -86 47 -7 47 -7 44 -43 l-3 -36 -75 1 c-44 1 -76 6 -78
13 -2 6 -9 11 -16 11 -7 0 -27 7 -44 16 -34 16 -48 14 -152 -25 -30 -12 -78
-21 -108 -21 l-53 0 3 37 c3 37 4 38 56 49 61 14 98 43 107 85 18 83 94 114
154 63z m-429 -299 c0 -36 6 -52 25 -71 l25 -25 330 3 c375 3 359 0 368 87 l5
51 144 0 c149 0 193 -10 207 -45 3 -9 6 -157 6 -328 l0 -312 -55 -29 c-68 -35
-129 -100 -163 -174 -23 -49 -27 -70 -27 -152 0 -87 3 -101 33 -162 61 -124
172 -196 318 -206 94 -5 106 -14 79 -56 -16 -24 -18 -25 -175 -28 -153 -3
-159 -4 -185 -28 -49 -46 -76 -103 -82 -179 l-6 -71 -602 0 -602 0 -6 202
c-11 336 -8 1483 3 1515 19 50 31 53 202 53 l158 0 0 -45z m1315 -794 c90 -41
143 -129 132 -223 -4 -28 -11 -56 -17 -62 -5 -5 -10 -17 -10 -27 0 -9 -12 -25
-26 -35 -15 -10 -31 -24 -37 -30 -6 -6 -20 -9 -30 -6 -12 3 -23 -2 -29 -12
-11 -19 -81 -22 -139 -5 -71 22 -139 119 -139 199 0 152 162 262 295 201z
m-165 -901 c11 -11 20 -27 20 -35 0 -20 -36 -55 -57 -55 -25 0 -53 30 -53 56
0 23 33 54 57 54 7 0 22 -9 33 -20z m170 0 c11 -11 20 -27 20 -35 0 -8 -9 -24
-20 -35 -11 -11 -27 -20 -35 -20 -8 0 -24 9 -35 20 -11 11 -20 27 -20 35 0 8
9 24 20 35 11 11 27 20 35 20 8 0 24 -9 35 -20z m-904 -138 c25 -17 33 -46 19
-73 -19 -35 -53 -44 -85 -20 -31 22 -37 57 -14 82 17 19 59 25 80 11z"/>
<path d="M893 2120 c-39 -24 -53 -48 -53 -95 0 -72 47 -125 110 -125 44 1 76
18 101 56 36 56 13 136 -50 169 -40 20 -69 19 -108 -5z"/>
<path d="M1257 2083 c-4 -3 -7 -15 -7 -25 0 -17 16 -18 316 -18 l315 0 -3 23
-3 22 -306 3 c-168 1 -308 -1 -312 -5z"/>
<path d="M1247 1963 c-4 -3 -7 -15 -7 -25 0 -17 16 -18 316 -18 l315 0 -3 23
-3 22 -306 3 c-168 1 -308 -1 -312 -5z"/>
<path d="M894 1659 c-52 -26 -70 -117 -34 -176 41 -68 146 -63 190 9 34 55 20
126 -32 162 -25 18 -92 20 -124 5z"/>
<path d="M1246 1604 c-4 -10 -3 -21 2 -26 5 -5 103 -7 218 -6 201 3 209 4 209
23 0 19 -8 20 -211 23 -191 2 -212 1 -218 -14z"/>
<path d="M1251 1496 c-6 -7 -9 -21 -5 -30 5 -14 30 -16 203 -16 160 0 201 3
217 15 19 15 19 15 0 30 -28 21 -398 22 -415 1z"/>
<path d="M889 1185 c-34 -19 -53 -65 -46 -116 9 -68 64 -107 132 -95 57 11 87
44 92 102 5 47 3 53 -30 87 -30 32 -40 37 -78 37 -24 -1 -56 -7 -70 -15z"/>
<path d="M1253 1154 c-3 -8 -1 -20 4 -25 5 -5 95 -8 219 -7 208 3 209 3 212
26 l3 22 -216 0 c-187 0 -216 -2 -222 -16z"/>
<path d="M1246 1033 c-4 -9 -3 -20 2 -25 5 -5 96 -7 203 -6 193 3 194 3 197
26 l3 22 -199 0 c-177 0 -201 -2 -206 -17z"/>
<path d="M2210 1533 c-59 -22 -81 -102 -39 -141 29 -28 77 -35 105 -17 78 51
63 141 -26 159 -14 3 -32 2 -40 -1z"/>
</g>
</svg>
